HIERARCHY
ROOT Hips
{
	OFFSET 0.000000 0.000000 0.000000
	CHANNELS 6 Xposition Yposition Zposition Xrotation Yrotation Zrotation
	JOINT LeftUpLeg_virtual
	{
		OFFSET 0.000000 0.000000 0.000000
		CHANNELS 3 Xrotation Yrotation Zrotation
		JOINT LeftUpLeg
		{
			OFFSET 15.427100 -6.655098 0.678600
			CHANNELS 3 Xrotation Yrotation Zrotation
			JOINT LeftLeg
			{
				OFFSET 4.081073 -39.591068 13.024000
				CHANNELS 3 Xrotation Yrotation Zrotation
				JOINT LeftFoot
				{
					OFFSET -4.081074 -37.707932 -15.979700
					CHANNELS 3 Xrotation Yrotation Zrotation
					JOINT LeftToeBase
					{
						OFFSET 5.346399 -15.068900 20.645000
						CHANNELS 3 Xrotation Yrotation Zrotation
						JOINT LeftToe_End
						{
							OFFSET 2.754700 0.931300 11.300900
							CHANNELS 3 Xrotation Yrotation Zrotation
							End Site
							{
								OFFSET 0 0 0
							}
						}
					}
				}
			}
		}
	}
	JOINT RightUpLeg_virtual
	{
		OFFSET 0.000000 0.000000 0.000000
		CHANNELS 3 Xrotation Yrotation Zrotation
		JOINT RightUpLeg
		{
			OFFSET -15.569500 -6.655098 0.678600
			CHANNELS 3 Xrotation Yrotation Zrotation
			JOINT RightLeg
			{
				OFFSET -4.081825 -39.591045 13.023800
				CHANNELS 3 Xrotation Yrotation Zrotation
				JOINT RightFoot
				{
					OFFSET 4.081824 -37.707954 -15.979600
					CHANNELS 3 Xrotation Yrotation Zrotation
					JOINT RightToeBase
					{
						OFFSET -5.346400 -15.068900 20.645000
						CHANNELS 3 Xrotation Yrotation Zrotation
						JOINT RightToe_End
						{
							OFFSET -2.754700 0.931300 11.300900
							CHANNELS 3 Xrotation Yrotation Zrotation
							End Site
							{
								OFFSET 0 0 0
							}
						}
					}
				}
			}
		}
	}
	JOINT Spine_virtual
	{
		OFFSET 0.000000 0.000000 0.000000
		CHANNELS 3 Xrotation Yrotation Zrotation
		JOINT Spine
		{
			OFFSET -0.279200 12.230698 -2.892100
			CHANNELS 3 Xrotation Yrotation Zrotation
			JOINT Spine1
			{
				OFFSET -0.232667 10.192268 -1.242267
				CHANNELS 3 Xrotation Yrotation Zrotation
				JOINT Spine1_split
				{
					OFFSET -0.232667 10.192268 -1.242267
					CHANNELS 3 Xrotation Yrotation Zrotation
					JOINT Spine2
					{
						OFFSET -0.232667 10.192268 -1.242267
						CHANNELS 3 Xrotation Yrotation Zrotation
						JOINT Neck_virtual
						{
							OFFSET 0.000000 0.000000 0.000000
							CHANNELS 3 Xrotation Yrotation Zrotation
							JOINT Neck
							{
								OFFSET -0.418800 17.814194 8.416900
								CHANNELS 3 Xrotation Yrotation Zrotation
								JOINT Head
								{
									OFFSET 0.000000 7.031097 3.806800
									CHANNELS 3 Xrotation Yrotation Zrotation
									JOINT HeadTop_End
									{
										OFFSET 0.000000 24.646606 12.978600
										CHANNELS 3 Xrotation Yrotation Zrotation
										End Site
										{
											OFFSET 0 0 0
										}
									}
								}
							}
						}
						JOINT LeftShoulder_virtual
						{
							OFFSET 0.000000 0.000000 0.000000
							CHANNELS 3 Xrotation Yrotation Zrotation
							JOINT LeftShoulder
							{
								OFFSET 8.476499 7.247704 -3.868750
								CHANNELS 3 Xrotation Yrotation Zrotation
								JOINT LeftShoulder_split
								{
									OFFSET 8.476499 7.247704 -3.868750
									CHANNELS 3 Xrotation Yrotation Zrotation
									JOINT LeftArm
									{
										OFFSET 9.308998 -2.777710 0.208600
										CHANNELS 3 Xrotation Yrotation Zrotation
										JOINT LeftForeArm
										{
											OFFSET 29.972298 0.000000 0.000000
											CHANNELS 3 Xrotation Yrotation Zrotation
											JOINT LeftHand
											{
												OFFSET 26.026505 0.000000 0.000000
												CHANNELS 3 Xrotation Yrotation Zrotation
												End Site
												{
													OFFSET 0 0 0
												}
											}
										}
									}
								}
							}
						}
						JOINT RightShoulder_virtual
						{
							OFFSET 0.000000 0.000000 0.000000
							CHANNELS 3 Xrotation Yrotation Zrotation
							JOINT RightShoulder
							{
								OFFSET -7.570500 7.247704 -3.868750
								CHANNELS 3 Xrotation Yrotation Zrotation
								JOINT RightShoulder_split
								{
									OFFSET -7.570500 7.247704 -3.868750
									CHANNELS 3 Xrotation Yrotation Zrotation
									JOINT RightArm
									{
										OFFSET -9.308998 -2.777710 0.208500
										CHANNELS 3 Xrotation Yrotation Zrotation
										JOINT RightForeArm
										{
											OFFSET -29.972300 0.000000 0.000000
											CHANNELS 3 Xrotation Yrotation Zrotation
											JOINT RightHand
											{
												OFFSET -26.026505 0.000000 0.000000
												CHANNELS 3 Xrotation Yrotation Zrotation
												End Site
												{
													OFFSET 0 0 0
												}
											}
										}
									}
								}
							}
						}
					}
				}
			}
		}
	}
}
MOTION
Frames: 11
Frame Time: 0.03333333
2.271448 218.751740 -20.627600 0.000000 0.000000 0.000000 4.122502 -9.863890 2.743212 -75.026110 18.210881 23.201637 85.221349 -1.974212 4.637154 -15.674639 5.344058 -17.340471 -2.829347 -3.475042 10.593750 0.000000 0.000000 0.000000 6.349506 -13.699839 1.384124 -91.025357 8.217499 -10.872170 104.498459 -5.327449 -2.339631 4.821784 -15.968714 22.274174 3.991313 8.443885 8.499933 0.000000 0.000000 0.000000 8.074741 -14.148579 1.882915 5.999758 -1.646605 1.099390 9.980549 -1.399464 -0.645609 1.035047 -2.495480 1.587493 0.000000 0.000000 0.000000 12.770419 -1.424156 -0.164994 -21.989895 1.978962 -1.892631 -0.369669 -4.744894 1.091305 0.000000 0.000000 0.000000 12.723025 -1.492931 -1.175604 1.054843 -13.770217 26.771866 0.803560 9.522593 -6.991447 -57.933979 -21.809347 -10.566396 31.183919 -70.284887 56.327884 0.000000 0.000000 0.000000 12.493114 -1.094038 -0.418581 3.933694 9.339743 -7.455134 6.848751 11.178279 0.009798 -73.830165 35.694220 23.158158 -22.202846 74.999589 -19.107755 0.000000 0.000000 0.000000 
2.677976 219.841492 -21.398237 0.000000 0.000000 0.000000 2.610619 -10.828045 3.289981 -79.750723 14.565920 22.462402 86.190936 -3.878466 1.633672 -15.060092 7.396249 -15.908050 -1.418184 -4.442892 10.721409 0.000000 0.000000 0.000000 4.897328 -14.220339 2.396584 -94.259213 5.361979 -12.465428 98.453168 -2.138826 -2.275989 8.734616 -13.786744 24.120495 1.587738 6.804845 5.627385 0.000000 0.000000 0.000000 7.215697 -14.937064 1.841200 6.618920 -1.686283 1.050041 13.213815 -1.120876 -0.662529 1.360292 -2.237088 1.720366 0.000000 0.000000 0.000000 15.742005 -1.029967 -0.337528 -23.852662 2.999433 -1.834356 2.098732 -5.305268 2.807576 0.000000 0.000000 0.000000 15.619481 -1.156827 -1.498034 2.627549 -16.149996 29.609649 0.017321 6.267332 -6.194070 -57.479539 -18.765147 -7.342660 17.199221 -66.304034 47.528626 0.000000 0.000000 0.000000 15.408328 -0.655411 -0.605995 4.444485 9.789928 -9.929579 7.988811 11.199855 -1.025106 -82.472533 35.690327 27.464408 -39.211887 75.750254 -3.345981 0.000000 0.000000 0.000000 
2.741042 220.758606 -21.390379 0.000000 0.000000 0.000000 1.257203 -10.806456 3.865674 -81.977891 11.099629 20.391441 80.182323 -5.519422 -0.265449 -13.113903 8.787712 -13.136289 0.605179 -4.998227 9.512924 0.000000 0.000000 0.000000 3.833418 -13.981503 3.383297 -94.432187 1.214994 -13.755044 87.459766 0.325831 -2.056146 12.572351 -9.929822 23.796159 -0.903563 6.261640 3.201711 0.000000 0.000000 0.000000 6.234312 -15.105445 1.756832 6.376721 -1.317642 1.086341 16.263000 -0.721525 -0.759620 1.440815 -2.542599 1.900283 0.000000 0.000000 0.000000 18.544293 -0.494735 -0.572057 -24.520797 3.962686 -1.896024 5.390066 -6.099451 4.793563 0.000000 0.000000 0.000000 18.397639 -0.746458 -1.733938 3.921516 -17.643593 31.415762 -1.348637 2.600642 -4.709638 -60.303904 -17.731958 -5.355088 7.198090 -61.270779 42.499814 0.000000 0.000000 0.000000 18.101446 -0.118694 -0.751614 5.300335 11.089502 -12.700651 8.928718 11.148021 -1.804493 -89.028838 36.847921 28.653333 -43.941817 70.960010 0.509846 0.000000 0.000000 0.000000 
2.452218 221.075500 -20.782804 0.000000 0.000000 0.000000 -0.179853 -9.756506 4.347861 -82.091723 8.489681 17.552201 68.618307 -6.982239 -1.271766 -10.215497 9.560585 -9.666939 2.151707 -5.276593 7.120563 0.000000 0.000000 0.000000 2.477712 -13.980513 4.008116 -92.404523 -3.722022 -14.828038 72.508373 1.412077 -1.223842 16.268507 -6.249933 20.751344 -3.236455 6.657732 1.962806 0.000000 0.000000 0.000000 4.948678 -14.795651 1.721942 5.731880 -0.793320 1.209786 18.895565 -0.308353 -0.872970 1.108583 -2.446843 1.708573 0.000000 0.000000 0.000000 20.835296 0.060400 -0.782384 -23.910163 4.910733 -2.147098 8.944343 -6.939610 6.691707 0.000000 0.000000 0.000000 20.807319 -0.310669 -1.841353 4.677798 -17.991326 32.312983 -2.497676 -0.756166 -2.957221 -64.946425 -18.382477 -3.793548 -1.316022 -55.110519 38.546015 0.000000 0.000000 0.000000 20.285530 0.361119 -0.802526 6.677680 12.744718 -16.087216 9.115594 10.515794 -2.126266 -91.111466 39.226313 25.559166 -41.434164 62.400069 -2.677511 0.000000 0.000000 0.000000 
1.748702 220.017258 -19.816629 0.000000 0.000000 0.000000 -2.033940 -8.395536 4.757080 -80.904246 7.597348 14.974367 55.249383 -7.952175 -1.639117 -7.741506 9.944260 -4.742634 1.966740 -5.472749 3.914679 0.000000 0.000000 0.000000 0.722719 -13.568313 4.239276 -89.129345 -8.508445 -15.808852 57.836041 1.955075 -0.335904 19.199954 -3.105571 16.691495 -7.451478 7.501347 2.157791 0.000000 0.000000 0.000000 3.023673 -14.065739 1.937632 5.247753 -0.305437 1.286111 20.886223 0.063026 -0.927981 0.651346 -2.300112 1.357675 0.000000 0.000000 0.000000 22.336221 0.547004 -0.894892 -22.146979 5.713295 -2.616634 12.281583 -7.572981 8.181603 0.000000 0.000000 0.000000 22.669905 0.081521 -1.763553 4.945412 -17.194334 32.738876 -2.707914 -2.707890 -1.754666 -69.711650 -20.323178 -2.782466 -9.845079 -47.752670 33.876061 0.000000 0.000000 0.000000 21.766805 0.703101 -0.759726 8.624453 14.414920 -19.972735 8.818866 9.230986 -1.901694 -88.149001 40.824092 18.151832 -39.511961 53.349556 -5.071494 0.000000 0.000000 0.000000 
0.871408 217.075974 -18.497286 0.000000 0.000000 0.000000 -4.380741 -7.423016 5.126071 -78.902933 8.533582 13.178224 44.103973 -8.778133 -1.253154 -6.863678 9.585049 1.300224 -2.357408 -5.559202 0.862243 0.000000 0.000000 0.000000 -1.607649 -12.655870 4.222120 -85.582762 -12.468696 -16.982277 48.301715 2.567208 0.480922 20.849164 -0.436512 12.616179 -14.720774 8.327509 3.585831 0.000000 0.000000 0.000000 0.438973 -13.418087 2.438013 5.387782 -0.041450 1.208108 22.111262 0.360731 -0.900495 0.375446 -2.106475 1.036114 0.000000 0.000000 0.000000 23.104713 0.876031 -0.889147 -19.575773 6.296746 -3.165213 14.946383 -7.966854 9.081945 0.000000 0.000000 0.000000 23.835928 0.384987 -1.538813 4.760449 -15.631125 32.715506 -2.192038 -3.276946 -1.378682 -72.437831 -21.993779 -1.940312 -18.088306 -40.400692 28.291067 0.000000 0.000000 0.000000 22.488640 0.868209 -0.606060 10.907310 15.570364 -24.525295 7.997498 8.231220 -1.132289 -81.577532 38.950865 8.254034 -39.546177 47.728563 -4.854719 0.000000 0.000000 0.000000 
-0.124965 212.509903 -17.005758 0.000000 0.000000 0.000000 -7.318055 -6.919962 5.411191 -76.633186 11.354788 12.706197 37.829211 -9.750051 -0.483460 -8.829118 7.889357 7.897086 -10.668834 -5.419118 -1.352883 0.000000 0.000000 0.000000 -4.642665 -11.426507 4.128697 -83.212154 -15.181105 -18.735361 46.635818 3.444883 1.134461 20.367556 1.386442 9.059354 -24.058756 8.622812 5.842779 0.000000 0.000000 0.000000 -2.773324 -13.033085 2.932331 6.165408 -0.033757 0.951078 22.552072 0.576639 -0.784146 0.453086 -1.885021 0.870139 0.000000 0.000000 0.000000 23.217003 1.068495 -0.810486 -16.626957 6.621567 -3.646744 16.652483 -7.926440 9.272039 0.000000 0.000000 0.000000 24.265786 0.594127 -1.241066 4.433784 -13.958634 32.847401 -0.984158 -2.648569 -1.532742 -72.735593 -22.885174 -1.051292 -25.894798 -33.325620 21.744230 0.000000 0.000000 0.000000 22.557605 0.904334 -0.427906 13.221085 15.924427 -29.721158 6.953776 7.649140 -0.139247 -74.967542 33.228037 -1.024567 -41.489072 46.124998 -2.101950 0.000000 0.000000 0.000000 
-1.017524 207.103058 -15.342413 0.000000 0.000000 0.000000 -10.630722 -6.817040 5.649381 -74.886768 15.384726 13.800699 37.551315 -10.904854 0.321386 -13.134716 4.744184 13.818044 -20.217859 -5.106265 -2.484098 0.000000 0.000000 0.000000 -8.214464 -9.639153 4.047036 -82.702874 -16.867514 -21.157682 52.248738 4.628958 1.604075 17.181536 2.482204 5.840955 -32.445898 8.307628 8.256591 0.000000 0.000000 0.000000 -6.178876 -12.822952 3.323219 7.339333 -0.195652 0.643422 22.311375 0.735792 -0.618157 0.754293 -2.010155 0.806320 0.000000 0.000000 0.000000 22.964573 1.141582 -0.730948 -13.723848 6.623787 -3.840617 17.289837 -7.477626 8.855262 0.000000 0.000000 0.000000 24.091100 0.705095 -0.902312 4.266615 -12.720224 33.491088 0.686529 -1.459548 -1.914210 -71.081861 -22.835238 -0.041822 -32.373632 -26.938193 14.896883 0.000000 0.000000 0.000000 22.157713 0.874845 -0.277045 15.245496 15.674642 -35.228545 6.371731 7.792223 0.697170 -71.280845 25.018208 -7.111088 -44.441746 46.185903 1.909626 0.000000 0.000000 0.000000 
-1.652297 201.793762 -13.415777 0.000000 0.000000 0.000000 -14.093778 -6.609245 5.629179 -74.591731 19.390636 16.264955 42.820669 -12.443054 0.732075 -17.934173 0.821445 17.485426 -27.394195 -4.884206 -2.578951 0.000000 0.000000 0.000000 -11.947816 -7.932968 3.953132 -83.997291 -17.627979 -23.951370 62.377898 5.763636 1.893379 11.895459 2.878930 2.575101 -37.539526 7.791740 10.263662 0.000000 0.000000 0.000000 -9.457836 -12.719533 3.412860 8.527267 -0.365384 0.474745 21.650663 0.854689 -0.449907 0.958809 -2.434694 0.854341 0.000000 0.000000 0.000000 22.676156 1.145032 -0.722354 -11.268926 6.402161 -3.676319 16.678550 -6.579803 7.960035 0.000000 0.000000 0.000000 23.576831 0.766037 -0.609181 4.392461 -12.160502 34.716028 2.368005 -0.171177 -2.322296 -68.163007 -21.839298 0.919870 -36.750652 -22.302492 8.605352 0.000000 0.000000 0.000000 21.568952 0.830824 -0.180477 16.701897 14.990763 -40.707941 6.134917 8.460081 1.446650 -69.890607 17.359062 -10.146786 -46.640169 45.103752 5.089890 0.000000 0.000000 0.000000 
-2.014705 197.390259 -11.344221 0.000000 0.000000 0.000000 -17.466839 -6.234742 5.358716 -76.214304 22.333498 19.841595 52.295487 -14.039810 0.691625 -21.770388 -2.472895 19.000534 -29.831500 -4.812227 -2.161987 0.000000 0.000000 0.000000 -15.357023 -6.584160 3.849992 -86.668988 -17.943045 -26.704443 73.674901 6.712488 2.240551 5.992900 2.737050 -0.414910 -39.320402 7.553475 11.535348 0.000000 0.000000 0.000000 -12.353671 -12.554052 3.184932 9.375494 -0.372724 0.525154 20.759602 0.974421 -0.310224 0.856432 -2.953295 0.723954 0.000000 0.000000 0.000000 22.482995 1.138914 -0.806494 -9.474507 6.013775 -3.193793 14.871437 -5.350618 6.797368 0.000000 0.000000 0.000000 22.925086 0.807677 -0.406796 4.869963 -12.193848 36.449585 3.748719 0.878520 -2.856837 -65.128989 -20.741746 1.466086 -38.739177 -19.342508 3.641563 0.000000 0.000000 0.000000 20.918520 0.802593 -0.183074 17.545815 14.259230 -45.495320 6.550694 8.910580 2.147061 -69.510364 12.637436 -10.828045 -46.925473 41.768424 5.984267 0.000000 0.000000 0.000000 
-2.069982 194.138763 -9.113245 0.000000 0.000000 0.000000 -20.455920 -5.703277 4.898433 -79.292172 23.545141 23.608943 63.400562 -15.312335 0.264890 -24.123690 -3.977659 19.285654 -28.650564 -4.804651 -1.577438 0.000000 0.000000 0.000000 -18.215720 -6.060554 3.533876 -89.726617 -18.263748 -28.744954 83.045319 7.464987 2.690450 1.228604 2.209010 -2.144234 -39.754266 7.780790 11.865571 0.000000 0.000000 0.000000 -14.840777 -12.433368 2.730290 9.736949 -0.113323 0.778347 19.895815 1.116344 -0.212140 0.598023 -3.496336 0.415870 0.000000 0.000000 0.000000 22.487068 1.149194 -0.960806 -8.468156 5.510570 -2.517884 11.935456 -3.964992 5.586137 0.000000 0.000000 0.000000 22.323799 0.858404 -0.286944 5.498674 -12.393651 38.101039 4.690538 1.108718 -3.209380 -62.440585 -19.897748 1.334498 -38.397042 -18.494593 0.452824 0.000000 0.000000 0.000000 20.305560 0.783356 -0.251009 17.869267 13.673213 -49.005788 7.017809 8.882436 2.686226 -69.037039 10.983092 -9.661488 -45.458867 37.196059 4.954052 0.000000 0.000000 0.000000 
